<svg xmlns="http://www.w3.org/2000/svg" width="280.31" height="235.72" viewBox="0 0 280.31 235.72">
  <g id="_404_Page_Not_Found__Two_Color" data-name="404 Page Not Found _Two Color" transform="translate(-63.54 -40.05)">
    <rect id="Rectangle_11" data-name="Rectangle 11" width="227.75" height="157.06" transform="translate(92.16 55.69)" fill="#e6e6e6"/>
    <rect id="Rectangle_12" data-name="Rectangle 12" width="227.75" height="124.36" transform="translate(92.16 88.39)" fill="#ccc" opacity="0.44"/>
    <path id="Path_34" data-name="Path 34" d="M311.21,179.69l-17.35,24.67h16.33v8.39h9.72l-.61-30.09Z" transform="translate(-218)" opacity="0.08"/>
    <ellipse id="Ellipse_22" data-name="Ellipse 22" cx="36.91" cy="3.72" rx="36.91" ry="3.72" transform="translate(63.54 268.33)" fill="#e6e6e6" opacity="0.45"/>
    <circle id="Ellipse_23" data-name="Ellipse 23" cx="4.38" cy="4.38" r="4.38" transform="translate(106.15 65.72)" fill="#24285b"/>
    <circle id="Ellipse_24" data-name="Ellipse 24" cx="4.38" cy="4.38" r="4.38" transform="translate(119.18 65.72)" fill="#ff9400"/>
    <circle id="Ellipse_25" data-name="Ellipse 25" cx="4.38" cy="4.38" r="4.38" transform="translate(131.46 65.72)" fill="#ffd200"/>
    <rect id="Rectangle_13" data-name="Rectangle 13" width="84.69" height="63.98" transform="translate(259.16 40.05)" fill="#24285b"/>
    <path id="Path_38" data-name="Path 38" d="M154.14,137a2.5,2.5,0,0,1,0-3.54l14.91-14.9a2.5,2.5,0,0,1,3.53,3.53L157.67,137A2.5,2.5,0,0,1,154.14,137Z" fill="#fff"/>
    <path id="Path_39" data-name="Path 39" d="M169.29,137.24l-14.91-14.91a2.5,2.5,0,1,1,3.54-3.53l14.9,14.9a2.5,2.5,0,1,1-3.53,3.54Z" fill="#fff"/>
    <path id="Path_40" data-name="Path 40" d="M236.82,137a2.5,2.5,0,0,1,0-3.54l14.91-14.9a2.5,2.5,0,1,1,3.53,3.53L240.36,137A2.52,2.52,0,0,1,236.82,137Z" fill="#fff"/>
    <path id="Path_41" data-name="Path 41" d="M252,137.24l-14.91-14.91a2.5,2.5,0,1,1,3.54-3.53l14.9,14.9a2.5,2.5,0,1,1-3.53,3.54Z" fill="#fff"/>
    <text id="_404" data-name="404" transform="translate(274.39 83.06)" fill="#fff" font-size="28.4" font-family="Helvetica-Bold, Helvetica" font-weight="700"><tspan x="0" y="0">404</tspan></text>
    <path id="Path_42" data-name="Path 42" d="M184.94,179.69a2.49,2.49,0,0,1-2.48-2.3c-.7-8.51,2.53-25.26,19.72-27.7,5.37-.75,9.86.48,13.34,3.68,8.17,7.51,7.36,23.3,7.33,24a2.5,2.5,0,0,1-5-.28c0-.14.71-14.1-5.72-20-2.36-2.16-5.38-2.94-9.25-2.4C186,157,187.37,176.17,187.44,177a2.5,2.5,0,0,1-2.29,2.69Z" fill="#fff"/>
    <rect id="Rectangle_15" data-name="Rectangle 15" width="45.53" height="15.69" transform="translate(274.39 104.03)" opacity="0.08"/>
    <rect id="Rectangle_16" data-name="Rectangle 16" width="6.47" height="65.12" transform="translate(98.06 191.51)" fill="#e6e6e6"/>
    <path id="Path_63" data-name="Path 63" d="M319.91,157.22l-26.05,39.91h52.11Z" transform="translate(-218)" fill="#ffd200"/>
    <rect id="Rectangle_17" data-name="Rectangle 17" width="18.89" height="21.26" transform="translate(92.19 251.05)" fill="#24285b"/>
    <rect id="Rectangle_18" data-name="Rectangle 18" width="3.7" height="12" transform="translate(99.85 172.06)" fill="#24285b"/>
    <rect id="Rectangle_19" data-name="Rectangle 19" width="3.7" height="3.7" transform="translate(99.85 186.4)" fill="#24285b"/>
  </g>
</svg>
