<svg xmlns="http://www.w3.org/2000/svg" width="329.36" height="245.186" viewBox="0 0 329.36 245.186">
  <g id="Group_3" data-name="Group 3" transform="translate(-106 -784)">
    <g id="Data_Arranging_Two_Color" data-name="Data Arranging_Two Color" transform="translate(63.13 761.717)">
      <ellipse id="Ellipse_26" data-name="Ellipse 26" cx="164.68" cy="11.38" rx="164.68" ry="11.38" transform="translate(42.87 244.71)" fill="#e6e6e6" opacity="0.45"/>
      <rect id="Rectangle_20" data-name="Rectangle 20" width="98.07" height="163.13" transform="translate(182.93 93.02)" fill="#24285b"/>
      <rect id="Rectangle_21" data-name="Rectangle 21" width="98.07" height="37.7" transform="matrix(0.987, -0.162, 0.162, 0.987, 175.789, 45.051)" fill="#24285b"/>
      <rect id="Rectangle_22" data-name="Rectangle 22" width="58.506" height="10.921" transform="matrix(0.987, -0.16, 0.16, 0.987, 194.195, 31.618)" fill="#ffd200"/>
      <rect id="Rectangle_23" data-name="Rectangle 23" width="81.71" height="26.09" rx="9.29" transform="translate(191.02 141.61)" fill="#fff" opacity="0.07"/>
      <circle id="Ellipse_27" data-name="Ellipse 27" cx="6.98" cy="6.98" r="6.98" transform="translate(250.85 147.71)" fill="#ffd200"/>
      <rect id="Rectangle_24" data-name="Rectangle 24" width="41.13" height="6.63" transform="translate(199.39 151.37)" fill="#fff"/>
      <rect id="Rectangle_25" data-name="Rectangle 25" width="81.71" height="26.09" rx="9.29" transform="translate(191.02 103.61)" fill="#fff" opacity="0.07"/>
      <circle id="Ellipse_28" data-name="Ellipse 28" cx="6.98" cy="6.98" r="6.98" transform="translate(250.85 109.71)" fill="#ffd200"/>
      <rect id="Rectangle_26" data-name="Rectangle 26" width="41.13" height="6.63" transform="translate(199.39 113.37)" fill="#fff"/>
      <rect id="Rectangle_27" data-name="Rectangle 27" width="81.943" height="26.164" rx="9.316" transform="matrix(0.987, -0.16, 0.16, 0.987, 185.216, 50.038)" fill="#fff" opacity="0.07"/>
      <circle id="Ellipse_29" data-name="Ellipse 29" cx="6.98" cy="6.98" r="6.98" transform="translate(245.78 44.56)" fill="#ffd200"/>
      <rect id="Rectangle_28" data-name="Rectangle 28" width="41.13" height="6.63" transform="matrix(0.987, -0.162, 0.162, 0.987, 194.55, 57.742)" fill="#fff"/>
      <rect id="Rectangle_29" data-name="Rectangle 29" width="81.71" height="26.09" rx="9.29" transform="translate(191.02 181.26)" fill="#fff" opacity="0.07"/>
      <circle id="Ellipse_30" data-name="Ellipse 30" cx="6.98" cy="6.98" r="6.98" transform="translate(250.85 187.36)" fill="#ffd200"/>
      <rect id="Rectangle_30" data-name="Rectangle 30" width="41.13" height="6.63" transform="translate(199.39 191.02)" fill="#fff"/>
      <rect id="Rectangle_31" data-name="Rectangle 31" width="81.71" height="26.09" rx="9.29" transform="translate(191.02 220.91)" fill="#fff" opacity="0.07"/>
      <circle id="Ellipse_31" data-name="Ellipse 31" cx="6.98" cy="6.98" r="6.98" transform="translate(250.85 227.01)" fill="#ffd200"/>
      <rect id="Rectangle_32" data-name="Rectangle 32" width="41.13" height="6.63" transform="translate(199.39 230.67)" fill="#fff"/>
    </g>
    <g id="Group_2" data-name="Group 2" transform="translate(-46.106 -7.542)">
      <g id="Group_1" data-name="Group 1" transform="translate(219.17 876.17)">
        <path id="Path_64" data-name="Path 64" d="M322.482,179.69,293.86,219.427h82.973L345.494,179.69Z" transform="translate(-293.86 -143.497)" opacity="0.08"/>
        <path id="Path_65" data-name="Path 65" d="M335.82,157.22,293.86,221.5H377.8Z" transform="translate(-293.86 -157.22)" fill="#ffd200"/>
      </g>
      <rect id="Rectangle_33" data-name="Rectangle 33" width="5.96" height="19.329" transform="translate(257.812 900.073)" fill="#24285b"/>
      <rect id="Rectangle_34" data-name="Rectangle 34" width="5.96" height="5.96" transform="translate(257.812 923.172)" fill="#24285b"/>
    </g>
  </g>
</svg>
